<svg xmlns="http://www.w3.org/2000/svg" width="24" height="24" fill="none" viewBox="0 0 24 24"><path fill="#121331" d="M19.5 8.329a.25.25 0 0 0-.125-.217l-7.25-4.174a.25.25 0 0 0-.25 0l-7.25 4.174a.25.25 0 0 0-.125.217V19.25c0 .139.112.25.25.25h4a.25.25 0 0 0 .25-.25v-5.5a.75.75 0 0 1 .75-.75h4.5a.75.75 0 0 1 .75.75v5.5c0 .139.112.25.25.25h4a.25.25 0 0 0 .25-.25zM21 19.25A1.75 1.75 0 0 1 19.25 21h-4a1.75 1.75 0 0 1-1.75-1.75V14.5h-3v4.75A1.75 1.75 0 0 1 8.75 21h-4A1.75 1.75 0 0 1 3 19.25V8.33c0-.626.334-1.205.877-1.517l7.25-4.174a1.75 1.75 0 0 1 1.746 0l7.25 4.174c.543.312.877.89.877 1.517z"/></svg>